<svg width="68" height="68" viewBox="0 0 68 68" fill="none" xmlns="http://www.w3.org/2000/svg">
<rect width="68" height="68" rx="20" fill="#FF8514" fill-opacity="0.2"/>
<path d="M34.0002 17.5C37.8122 21.2887 42.7874 23.2614 47.8718 23C48.6121 25.8289 48.8386 28.796 48.5379 31.7252C48.2372 34.6543 47.4154 37.4857 46.1214 40.051C44.8274 42.6163 43.0876 44.8632 41.0053 46.6582C38.923 48.4532 36.5408 49.7597 34.0002 50.5C31.4595 49.7597 29.0773 48.4532 26.995 46.6582C24.9128 44.8632 23.1729 42.6163 21.8789 40.051C20.5849 37.4857 19.7631 34.6543 19.4624 31.7252C19.1617 28.796 19.3882 25.8289 20.1285 23C25.2129 23.2614 30.1882 21.2887 34.0002 17.5Z" stroke="#FF8514" stroke-width="2" stroke-linecap="round"/>
<circle cx="53" cy="15" r="3" fill="white"/>
</svg>
