<svg width="68" height="68" viewBox="0 0 68 68" fill="none" xmlns="http://www.w3.org/2000/svg">
<rect width="68" height="68" rx="20" fill="#FF8514" fill-opacity="0.2"/>
<path d="M31.25 22.0837C31.25 21.8405 31.3466 21.6074 31.5185 21.4355C31.6904 21.2636 31.9236 21.167 32.1667 21.167H35.8333C36.0764 21.167 36.3096 21.2636 36.4815 21.4355C36.6534 21.6074 36.75 21.8405 36.75 22.0837C36.75 22.3268 36.6534 22.5599 36.4815 22.7318C36.3096 22.9037 36.0764 23.0003 35.8333 23.0003H32.1667C31.9236 23.0003 31.6904 22.9037 31.5185 22.7318C31.3466 22.5599 31.25 22.3268 31.25 22.0837Z" fill="#FF8514"/>
<path fill-rule="evenodd" clip-rule="evenodd" d="M42.5835 28.9767C42.2508 29.2379 41.819 29.4469 41.2984 29.6165C41.398 30.6349 41.2834 31.6628 40.9619 32.6342C40.6405 33.6057 40.1193 34.4991 39.4319 35.257C38.7444 36.0149 37.906 36.6206 36.9705 37.0351C36.035 37.4496 35.0231 37.6637 33.9999 37.6637C32.9766 37.6637 31.9647 37.4496 31.0292 37.0351C30.0937 36.6206 29.2553 36.0149 28.5679 35.257C27.8805 34.4991 27.3593 33.6057 27.0378 32.6342C26.7164 31.6628 26.6017 30.6349 26.7014 29.6165C26.1807 29.4469 25.7489 29.2379 25.4171 28.9767C24.9863 28.6375 24.6975 28.1847 24.6636 27.6402C24.6315 27.1351 24.8314 26.7061 25.0312 26.4036C25.2285 26.1171 25.4627 25.8578 25.7279 25.6327C25.8562 25.5199 25.9827 25.42 26.1 25.3329C26.0652 25.145 26.0267 24.9177 25.9882 24.6546C25.8258 23.4991 25.7462 22.3335 25.7499 21.1667C25.7499 20.8788 25.8727 20.6643 25.9295 20.5736C26.001 20.459 26.0854 20.3609 26.1624 20.2821C26.3154 20.1217 26.5134 19.9585 26.7307 19.8017C27.1707 19.4827 27.7757 19.1243 28.4944 18.7888C29.9271 18.1197 31.8952 17.5 33.9999 17.5C36.1054 17.5 38.0726 18.1206 39.5054 18.7888C40.1232 19.0714 40.7136 19.4105 41.269 19.8017C41.4863 19.9585 41.6843 20.1226 41.8374 20.2821C41.9144 20.3609 41.9987 20.459 42.0702 20.5736C42.127 20.6643 42.2499 20.8788 42.2499 21.1667C42.2499 22.6352 42.1307 23.825 42.0115 24.6546C41.973 24.9177 41.9345 25.145 41.8997 25.3329C42.017 25.42 42.1444 25.5199 42.2728 25.6327C42.5019 25.8334 42.7641 26.0947 42.9685 26.4036C43.1693 26.7061 43.3682 27.1351 43.337 27.6411C43.3031 28.1847 43.0144 28.6375 42.5835 28.9767ZM27.585 21.4582C27.5988 22.6938 27.7014 23.693 27.8032 24.3915C27.827 24.5565 27.8509 24.7032 27.8729 24.8333H40.1269C40.1498 24.7032 40.1727 24.5556 40.1965 24.3915C40.2974 23.693 40.4009 22.6938 40.4147 21.4582C40.3433 21.3978 40.2696 21.3404 40.1938 21.2858C39.8629 21.0466 39.3605 20.745 38.7299 20.4507C37.4621 19.8586 35.7635 19.3333 33.9999 19.3333C32.2362 19.3333 30.5376 19.8586 29.2699 20.4507C28.6392 20.745 28.1369 21.0466 27.8069 21.2849C27.7306 21.34 27.6566 21.3981 27.585 21.4591M27.3889 26.6667L27.3861 26.6685C27.2279 26.7739 27.0764 26.889 26.9324 27.0132C26.7692 27.1562 26.639 27.2955 26.5602 27.4165C26.5414 27.4437 26.5246 27.4722 26.5098 27.5017C26.5228 27.5136 26.5362 27.5249 26.5501 27.5357C26.6876 27.6438 26.9828 27.8024 27.5584 27.9592C27.6721 27.9903 27.794 28.0197 27.9242 28.049L27.9324 28.0508C28.3926 28.1526 28.9591 28.2433 29.6494 28.3148C30.6274 28.4166 31.8585 28.4835 33.3967 28.4982L33.9999 28.5C36.9579 28.5 38.871 28.3158 40.0682 28.0508L40.0755 28.049C40.2066 28.0197 40.3285 27.9903 40.4422 27.9592C41.0169 27.8033 41.313 27.6438 41.4496 27.5357C41.4635 27.5249 41.477 27.5136 41.4899 27.5017C41.4754 27.4722 41.4589 27.4437 41.4404 27.4165C41.3338 27.2667 41.2084 27.1311 41.0674 27.0132C40.9237 26.889 40.7724 26.7739 40.6145 26.6685L40.6109 26.6667H27.3889ZM33.7505 30.3333C36.1724 30.3333 38.0497 30.205 39.4889 29.9813C39.5362 30.7287 39.4304 31.4779 39.1779 32.1829C38.9254 32.8879 38.5317 33.534 38.0207 34.0815C37.5098 34.6289 36.8924 35.0663 36.2064 35.3667C35.5205 35.6672 34.7804 35.8244 34.0315 35.8287C33.2827 35.833 32.5408 35.6843 31.8514 35.3918C31.1621 35.0993 30.5397 34.6691 30.0225 34.1275C29.5052 33.586 29.104 32.9445 28.8435 32.2424C28.5829 31.5403 28.4685 30.7925 28.5072 30.0446C29.8483 30.2297 31.567 30.3333 33.7505 30.3333ZM26.738 47.6372C26.6903 47.9783 26.6664 48.3223 26.6665 48.6667V49.5833C26.6666 49.7848 26.6003 49.9808 26.4779 50.1408C26.3554 50.3009 26.1836 50.4161 25.9891 50.4687C25.7946 50.5213 25.5882 50.5083 25.4017 50.4318C25.2153 50.3553 25.0593 50.2194 24.9579 50.0453C24.3401 50.3805 23.6171 50.4655 22.9384 50.2828L21.1674 49.8079C20.4632 49.6189 19.8629 49.1579 19.4985 48.5264C19.1341 47.8948 19.0354 47.1444 19.2241 46.4401L19.9354 43.7836C20.1243 43.0792 20.5852 42.4786 21.2167 42.114C21.8483 41.7494 22.5989 41.6506 23.3033 41.8393L25.0743 42.3133C25.6903 42.4783 26.2018 42.8403 26.5574 43.3133C27.406 42.1322 28.5238 41.1702 29.8182 40.507C31.1126 39.8439 32.5464 39.4987 34.0008 39.5C35.4544 39.499 36.8873 39.8442 38.181 40.507C39.4747 41.1698 40.592 42.1312 41.4404 43.3115C41.8089 42.8229 42.3304 42.4717 42.9218 42.3142L44.6928 41.8403C45.3971 41.6515 46.1475 41.7502 46.7791 42.1146C47.4106 42.479 47.8716 43.0794 48.0606 43.7836L48.7729 46.441C48.8663 46.7899 48.8901 47.1537 48.8429 47.5118C48.7957 47.8698 48.6784 48.2151 48.4978 48.5278C48.3172 48.8405 48.0767 49.1146 47.7902 49.3344C47.5036 49.5542 47.1766 49.7154 46.8277 49.8088L45.0576 50.2828C44.3801 50.4656 43.6583 50.3816 43.0409 50.0481C42.9392 50.2219 42.7829 50.3574 42.5964 50.4336C42.4099 50.5098 42.2035 50.5224 42.0091 50.4695C41.8148 50.4166 41.6432 50.3011 41.521 50.1409C41.3988 49.9808 41.3328 49.7848 41.3332 49.5833V48.6667C41.3334 48.3223 41.3095 47.9783 41.2617 47.6372L36.4914 48.916C36.2699 49.39 35.9179 49.7909 35.4766 50.0719C35.0353 50.3528 34.523 50.502 33.9999 50.502C33.4767 50.502 32.9644 50.3528 32.5231 50.0719C32.0818 49.7909 31.7298 49.39 31.5084 48.916L26.738 47.6372ZM31.3599 46.9773C31.4829 46.5594 31.7032 46.1766 32.0028 45.8603C32.3023 45.544 32.6726 45.3032 33.0832 45.1577V41.3902C31.7974 41.5527 30.5776 42.0527 29.5477 42.8394C28.5177 43.626 27.7144 44.6713 27.2193 45.869L31.3599 46.9773ZM40.7804 45.8681C40.2852 44.6706 39.4818 43.6255 38.4519 42.839C37.4219 42.0525 36.2022 41.5526 34.9165 41.3902V45.1568C35.7452 45.4501 36.3924 46.1284 36.6399 46.9782L40.7804 45.8681ZM42.7485 45.2081C42.7173 45.0918 42.7094 44.9705 42.725 44.8511C42.7407 44.7318 42.7798 44.6167 42.84 44.5124C42.9001 44.4081 42.9803 44.3167 43.0758 44.2434C43.1713 44.1701 43.2803 44.1163 43.3966 44.0852L45.1676 43.6103C45.4023 43.5476 45.6524 43.5806 45.8627 43.7022C46.0731 43.8237 46.2267 44.0238 46.2896 44.2584L47.0019 46.9149C47.0331 47.0312 47.041 47.1525 47.0253 47.2719C47.0097 47.3912 46.9706 47.5063 46.9104 47.6106C46.8502 47.7149 46.7701 47.8063 46.6746 47.8796C46.5791 47.9529 46.4701 48.0067 46.3538 48.0378L44.5828 48.5127C44.4664 48.5438 44.3451 48.5518 44.2257 48.536C44.1062 48.5203 43.9911 48.4812 43.8868 48.4209C43.7825 48.3606 43.6911 48.2804 43.6179 48.1848C43.5446 48.0892 43.4909 47.98 43.4599 47.8637L42.7485 45.2081ZM22.8294 43.6103C22.713 43.579 22.5916 43.5709 22.4722 43.5865C22.3527 43.6022 22.2375 43.6412 22.1331 43.7014C22.0287 43.7616 21.9372 43.8418 21.8639 43.9373C21.7905 44.0329 21.7367 44.142 21.7055 44.2584L20.9942 46.914C20.963 47.0303 20.955 47.1516 20.9707 47.2709C20.9864 47.3903 21.0254 47.5054 21.0856 47.6097C21.1458 47.714 21.2259 47.8054 21.3215 47.8787C21.417 47.952 21.526 48.0058 21.6423 48.0369L23.4133 48.5118C23.5296 48.5429 23.6509 48.5509 23.7702 48.5352C23.8896 48.5195 24.0047 48.4805 24.109 48.4203C24.2133 48.3601 24.3047 48.28 24.378 48.1845C24.4513 48.089 24.505 47.98 24.5362 47.8637L25.2475 45.2072C25.2789 45.0908 25.2869 44.9694 25.2713 44.85C25.2557 44.7305 25.2167 44.6153 25.1565 44.5109C25.0963 44.4065 25.0161 44.315 24.9205 44.2417C24.8249 44.1683 24.7158 44.1145 24.5994 44.0833L22.8294 43.6103ZM34.9165 47.75C34.9165 47.9931 34.82 48.2263 34.648 48.3982C34.4761 48.5701 34.243 48.6667 33.9999 48.6667C33.7567 48.6667 33.5236 48.5701 33.3517 48.3982C33.1798 48.2263 33.0832 47.9931 33.0832 47.75C33.0832 47.5069 33.1798 47.2737 33.3517 47.1018C33.5236 46.9299 33.7567 46.8333 33.9999 46.8333C34.243 46.8333 34.4761 46.9299 34.648 47.1018C34.82 47.2737 34.9165 47.5069 34.9165 47.75Z" fill="#FF8514"/>
<circle cx="53" cy="15" r="3" fill="white"/>
</svg>
