<svg width="1280" height="753" viewBox="0 0 1280 753" fill="none" xmlns="http://www.w3.org/2000/svg">
<g clip-path="url(#clip0_100_39)">
<mask id="mask0_100_39" style="mask-type:alpha" maskUnits="userSpaceOnUse" x="0" y="0" width="1280" height="753">
<rect width="1280" height="753" fill="url(#paint0_linear_100_39)"/>
</mask>
<g mask="url(#mask0_100_39)">
<path d="M1181.46 169.856L1180.59 170.228L1173.51 172.337L1171.03 173.206L1168.17 174.075L1167.18 174.447M1181.46 169.856L1186.56 168.242L1202.21 163.031L1209.29 155.337M1181.46 169.856L1175.87 149.505L1176.87 142.06V133.994L1175.5 127.541L1180.84 120.468L1181.09 118.234L1178.11 107.066M1167.18 174.447V174.819L1167.55 181.272L1167.92 187.228L1168.29 192.688L1168.92 193.06M1167.18 174.447L1166.93 174.571L1160.72 154.22L1154.13 143.921L1152.27 131.636L1146.68 118.607M1168.92 193.06L1171.15 192.44L1181.22 189.462L1181.46 190.082L1199.36 183.257L1199.48 183.505M1168.92 193.06L1169.16 194.301L1173.89 212.542L1175.38 214.404L1172.15 218.374L1174.38 220.484M1199.48 183.505L1201.09 182.885L1206.81 180.651L1212.28 187.228M1199.48 183.505L1199.98 184.87L1203.83 195.666L1204.57 198.272L1204.7 201.25M1212.28 187.228L1213.02 186.608L1213.39 184.746L1213.27 187.724M1212.28 187.228L1209.79 187.724L1210.91 196.162L1204.95 200.878L1204.7 201.25M1213.27 187.724H1214.51L1214.89 189.213L1216 191.323M1213.27 187.724V188.593L1214.14 190.827L1215.26 192.812L1216 191.323M1216 191.323L1221.84 184.25L1226.69 185.863L1227.81 183.381L1235.76 179.162L1232.4 172.586L1233.27 176.805L1229.17 179.907L1224.58 180.279L1215.38 170.476L1211.28 164.272L1215.38 159.928L1211.16 159.68L1209.42 155.585L1209.29 155.337M1209.29 155.337L1209.29 153.352L1209.67 150.125L1208.8 150.498L1208.67 149.753M714.94 94.4093L717.425 103.22L722.643 134.986L725.128 147.644L725.874 158.812L728.731 165.512L729.352 171.221L729.849 173.082M714.94 94.4093L716.183 94.2852L734.943 93.5407L750.1 92.4239L749.603 82.869L755.318 84.4822L755.815 87.8326L760.288 99.0006L773.458 100.862L775.073 103.344L783.397 99.7452H788.615L794.454 101.606L792.964 103.344L797.56 105.701L804.394 105.205L806.754 108.059L815.327 111.658L826.012 107.315L827.875 109.548L839.802 107.935L842.908 110.293L848.126 109.3L840.299 115.132L832.845 118.731L828.621 121.709L817.563 135.855L807.872 146.03M714.94 94.4093H712.331L674.811 95.1539L648.596 95.0298L626.108 94.5334L599.769 93.5407L598.403 93.4166M729.849 173.082L729.725 173.454L724.755 181.644L727.986 187.104L734.198 230.783L734.446 236.491M729.849 173.082L725.625 173.33L704.628 173.951L654.062 174.323L599.272 172.834L594.427 172.586M734.446 236.491L740.658 236.119L765.133 234.754L826.26 229.667L832.348 229.046M734.446 236.491L731.837 236.616L733.949 250.389L732.21 256.966L734.943 261.061V261.93M832.348 229.046V228.426L830.608 218.871L823.03 215.024L817.066 208.82L807.624 203.111L804.642 202.863L800.045 199.389L801.288 182.264L796.939 178.294L798.43 171.345L806.381 164.147L805.015 149.257L807.872 146.03M832.348 229.046L835.951 233.389L834.957 236.74L836.199 244.061L839.927 249.149L846.76 252.747L846.636 253.368M807.872 146.03L807.997 146.279L820.421 144.293L830.608 139.081L829.739 148.14L831.851 146.899L838.187 147.768L838.56 147.395M395.766 67.6061L399.244 68.3506L432.292 74.6791L447.077 77.1609L476.646 81.7522L495.158 84.234L524.976 87.7085L554.918 90.5626L596.042 93.2925L598.403 93.4166M395.766 67.6061L390.423 92.9203L392.784 97.5116L394.648 104.585L393.529 105.577L395.89 112.03L399.12 114.76L408.314 130.147L409.184 132.753L412.911 132.505L408.562 152.855L406.823 153.352L404.463 160.177L416.762 161.045L417.756 166.753L424.714 183.754L425.956 184.746L430.802 194.673L432.044 193.681L442.356 193.557L455.401 194.922L458.632 190.702L462.483 197.651L463.228 198.024M395.766 67.6061L395.641 67.6061L384.584 65.3725L380.981 64.5038L379.366 64.1316M463.228 198.024L463.353 197.279L465.092 185.118L507.582 190.33L541.5 193.557L559.391 195.046L591.321 196.907L592.936 197.031M463.228 198.024L462.732 202.119L460.495 218.126L456.271 250.389L455.153 258.455L454.656 262.55M592.936 197.031H593.309L593.433 195.294L594.427 172.586M592.936 197.031L592.812 200.257L591.569 226.316L590.575 245.674L590.451 249.024M594.427 172.586L596.663 128.658L598.278 98.3802L598.403 93.4166M280.719 558.999L280.843 559.123M279.104 555.277H278.979V555.152M67.8942 433.421H67.77M379.366 64.1316L364.954 128.906L365.575 134.242L365.078 139.826L365.327 141.067M379.366 64.1316L377.378 63.7593L348.306 56.9344L322.961 50.4818L294.261 42.5401L285.688 40.4306L287.676 51.2263L285.813 54.7008L282.458 52.9636L285.688 67.9784L282.21 72.9419L280.594 77.5332V82.2486L273.264 87.3363L270.158 85.3509L267.176 86.8399L272.643 79.7668L271.276 84.6063L274.382 81.2559L276.867 81.7523L276.122 75.5478L277.737 75.796L281.091 68.3506L279.973 67.2338L275.625 72.8179L272.767 72.9419L275.873 69.4674L279.352 68.5988L278.11 62.2703L274.631 61.4016L272.892 58.4235L270.779 59.5403L259.349 54.5767L249.286 46.7591L246.553 54.3286L246.304 57.5549L248.416 63.263L247.049 81.7523L246.056 84.6063L251.646 85.1027L246.056 89.0735L249.037 90.5626L246.677 98.5043L245.559 92.2999L243.446 99.497L246.304 102.972L249.41 102.723L253.137 104.957L255.001 108.556L257.237 108.555M365.327 141.067V141.191L365.451 143.549L369.675 148.14L363.587 163.403L350.666 180.279L350.294 183.381L353.648 191.323L341.845 240.214L341.348 242.82M365.327 141.067L362.966 140.571L328.054 132.629L326.191 133.497L319.358 132.381L305.567 133.87L297.119 132.753L288.173 132.629L287.428 130.395L268.543 128.658L261.834 125.059L260.964 122.702L261.71 113.395L257.237 108.555M341.348 242.82L344.827 243.565L379.987 250.514L394.026 253.119L397.629 253.74M341.348 242.82L337.869 242.075L320.352 238.229L288.919 230.783L285.44 229.915M397.629 253.74L401.108 254.36L418.999 257.214L451.053 262.054L454.656 262.55M397.629 253.74L396.884 257.711L390.299 297.916L377.378 378.201L376.757 382.172M454.656 262.55L454.407 264.163L451.301 288.361L456.147 288.981L487.828 292.828L490.313 293.076M257.237 108.555L256.864 108.679L255.995 109.3L249.783 106.074L246.055 107.19L243.571 105.95L240.962 116.621L239.222 119.599L231.519 138.337L229.283 148.636L227.916 148.76L220.71 165.885L215.865 173.206L214.126 174.447L209.653 183.133L208.783 192.316L206.05 200.506L207.665 207.951L207.665 208.075M376.757 382.172L379.987 382.669L412.041 387.756L434.529 390.982L476.398 396.194L479.628 396.566M376.757 382.172V382.42L371.29 406.494L368.433 406.37L364.084 402.523L358.618 407.114L358.493 426.844L356.506 431.063V431.436M356.506 431.436V431.56L356.257 434.662L360.605 446.326L364.457 451.538L357.499 455.633L354.766 460.721L350.294 471.64L348.057 472.137L347.933 481.195L351.784 484.049L349.797 489.509L345.324 489.757M356.506 431.436L353.275 427.092L343.336 413.815L324.079 386.763L297.243 348.296L282.085 327.325L267.425 306.229L284.322 234.63L285.44 229.915M345.324 489.757L342.715 494.597L351.66 500.181L368.557 509.612L420.738 537.284L464.968 542.744H465.465M345.324 489.757L294.509 484.794L290.658 479.706L291.155 469.035L284.197 457.494L276.743 448.684L271.773 446.326L269.289 439.501L263.325 438.385L257.858 435.282L255.871 431.311L250.155 425.231L231.519 418.53L230.153 416.545L231.022 400.041L228.289 398.552L219.592 374.727L214.623 367.033L213.877 359.464L218.474 353.508L211.517 344.945L209.777 331.668L210.398 324.967L212.51 329.807L216.238 333.405L214.871 325.463L214.995 319.135L221.704 317.894L219.841 319.631L214.995 315.784L210.523 323.23L202.82 315.909L203.068 303.872L199.838 299.653L194.744 288.609L196.235 285.258L195.738 277.193L198.72 269.127L196.608 259.2L192.384 251.63L192.632 246.17L201.329 235.375L206.547 220.856L207.665 208.571V208.075M465.465 542.744L465.962 542.868L483.107 544.481L484.722 535.795L487.828 533.313L522.616 536.415H522.864M465.465 542.744L469.813 497.079L479.131 401.034L479.628 396.566M479.628 396.566L479.877 393.34L480.871 383.537L489.94 296.302L490.313 293.076M479.628 396.566L483.48 396.939L546.097 402.399L573.678 404.136L601.136 405.377L605.111 405.501M200.459 323.478L200.335 323.602M285.44 229.915L280.594 228.674L227.419 214.031L207.665 208.075M587.966 300.894L590.948 301.018L621.263 302.135L627.226 302.383L626.729 326.704L626.605 328.318M587.966 300.894L585.481 300.77L548.582 298.412L523.982 296.426L493.295 293.448L490.313 293.076M587.966 300.894L588.091 297.667L588.712 284.638L589.83 261.93L590.327 252.251L590.451 249.024M605.111 405.501L607.596 405.625L612.814 405.749L615.299 405.873L623.126 406.121H625.114M605.111 405.501L604.739 415.18L604.615 418.53M625.114 406.121V403.64L626.481 337.996L626.605 330.675V328.318M625.114 406.121L630.457 406.245L659.28 406.618L726.743 405.625L774.824 403.391L779.545 403.019M626.605 328.318L631.326 328.442L648.099 328.69H689.844L710.84 328.193L756.685 326.456L760.909 326.208M522.864 536.415L519.758 530.335L535.537 531.451L574.921 533.685L599.521 534.802L603.745 418.406L604.615 418.53M522.864 536.415L536.406 549.941L544.109 558.999L554.297 566.569L561.503 579.722L564.236 593.496L570.076 597.343L574.672 602.43L581.257 604.788L590.824 610.868L595.172 612.482L601.136 606.525L602.999 600.197L606.105 594.116L615.796 590.27L619.523 592.131L630.332 593L640.147 599.08L646.856 600.321L644.993 603.795L648.844 606.277L652.447 610.62L653.193 615.212L655.553 618.314L661.02 631.467L666.486 636.059L670.711 643.008L676.053 648.468L678.414 649.212L680.401 663.358L686.241 666.585L686.489 671.052L687.98 670.68L698.168 683.088L703.262 684.205L709.722 688.052H719.661L726.867 692.023L735.44 690.161L731.589 686.563L728.11 676.139L726.743 667.081L724.755 664.103L725.625 658.022L723.016 657.774L719.537 652.066L723.513 656.285L728.11 654.672L730.595 648.095L725.625 641.394L733.08 642.263L736.558 636.927L736.061 635.066L739.167 630.971L738.422 634.57L741.901 631.84L740.534 627L745.007 629.358L750.722 626.131L745.131 620.299L748.61 621.664L755.07 622.036L763.518 620.175L772.961 613.847L778.676 609.131L779.546 605.657L783.024 602.058L781.161 596.102L781.533 592.379L787.745 589.649L787.248 596.226H790.976L786.876 599.7L803.4 591.014L806.133 590.89L807.872 582.948L808.37 582.948M604.615 418.53L605.36 418.53L635.426 419.275L667.232 419.647L667.604 462.085L669.841 469.531L674.81 474.246L680.153 474.494L681.271 472.261L688.601 478.962L698.168 479.954L699.907 481.94L703.386 480.327L712.082 484.421V486.779L715.313 486.655L718.667 483.801L724.879 487.772L730.719 489.881L734.694 484.421L747.367 490.378L752.088 486.531L755.94 485.042L759.046 485.786L770.724 482.436L776.936 485.042L782.527 488.64L787.372 489.509L787.497 489.509M590.451 249.024L636.296 250.513L671.953 250.886L696.428 250.638L704.256 255.601L710.84 253.74L715.189 253.864L728.731 257.835L732.582 261.682L734.943 261.93M780.291 416.048L786.13 415.676L826.136 412.45L873.472 407.859L875.832 412.698L870.366 421.384L883.784 419.399L883.908 419.399M780.291 416.048L781.036 419.523L785.882 444.589L786.006 450.173L787.373 483.925L787.497 489.509M780.291 416.048L780.167 412.822L779.918 409.472L779.794 406.245L779.545 403.019M787.497 489.509L787.87 489.633L789.733 491.619L797.188 491.371L797.933 502.291L798.182 505.393M798.182 505.393L802.033 505.02L813.836 504.152L860.675 499.809H860.923M798.182 505.393L798.306 508.371L800.791 532.32L804.891 538.028L805.015 541.379L808.991 548.328L812.221 558.503L811.103 564.211L810.233 578.357L808.37 582.948M860.923 499.809L860.799 497.079L862.042 496.21L859.805 491.991L864.526 472.137L862.663 469.903L869.744 462.086L869.247 455.385L874.466 446.699V446.574M860.923 499.809L860.923 500.677L863.781 507.378L863.532 511.473L868.129 517.057L858.687 533.189L857.196 542.868L854.587 546.714L856.326 551.182L854.711 552.795L897.574 548.079L896.083 554.036L901.55 564.707L904.408 568.306M874.466 446.574L874.217 446.326L878.69 442.231L877.447 437.268L880.926 431.808L880.181 426.72L883.908 419.523V419.399M874.466 446.574L877.199 446.326L902.047 443.224L912.98 441.735L919.192 440.866L919.441 440.866M883.908 419.399L883.908 418.406L884.156 412.698L886.641 409.596L885.896 406.121L885.771 405.997M734.943 261.93L735.813 262.054L739.788 273.718L743.64 279.799L743.888 286.748L748.113 292.58L747.367 295.062L751.219 310.697V311.069M751.219 311.069L776.688 310.325L803.897 307.967L830.609 304.617L836.696 309.952L836.945 310.201M751.219 311.069L751.094 311.814L754.2 317.77L757.058 319.755L760.412 325.712L760.909 326.208M836.945 310.201L838.063 309.704L837.193 304.865L841.79 302.011L843.654 289.354L841.79 288.485L842.908 282.032L848.499 280.915L854.711 276.448L857.445 268.631L857.569 264.66L852.599 259.944L851.108 256.966L846.387 253.988L846.636 253.368M836.945 310.201L835.951 315.66L839.927 326.704L854.09 338.617L855.332 344.325L858.066 347.179L867.011 346.683L865.396 354.996L864.775 363.931L870.117 368.274L878.565 371.997L883.038 375.471L885.523 382.544L884.156 385.15L892.977 392.347L893.35 392.471M846.636 253.368L873.72 250.265L883.784 249.024L900.556 246.667M760.909 326.208L762.152 327.201L765.134 329.31L768.364 329.186L770.103 332.288L765.755 337.624L770.227 341.595L770.724 344.077L776.315 347.303L779.421 399.793L779.545 403.019M885.771 405.997L885.647 405.873L886.144 404.26L886.89 404.508L887.262 405.501L887.138 405.873M885.771 405.997L887.138 405.873M887.138 405.873V406.99L887.635 407.114L888.629 405.873V405.749M888.629 405.749L888.753 405.377L891.984 403.391L892.48 403.143L893.599 392.968L893.35 392.471M888.629 405.749L892.232 405.253L917.329 401.902L916.086 396.939L920.31 396.815L970.876 390.114L1006.41 384.158L1006.91 383.785M893.35 392.471L892.605 391.727L895.089 385.895L904.656 388.501L907.017 385.771L905.153 380.311L912.98 375.72L910.868 372.741L912.732 368.522V368.15M917.701 576.744V576.372M808.37 582.948H808.618L808.991 586.175L806.879 589.153L822.284 587.416L834.336 590.766L842.908 591.883L847.257 588.781L844.896 585.678L852.848 583.197L852.599 585.927L856.699 584.934L860.054 590.146L862.911 589.153L870.366 594.241L865.769 595.854L876.329 598.956H880.305L882.665 596.102L887.759 593.372L891.362 598.584L893.847 593.868L893.102 586.423L899.811 589.029L900.556 591.262L908.508 592.255L912.483 595.481L911.986 598.087L917.577 592.876L915.465 590.146L906.147 587.788L902.668 585.802L902.544 582.08L906.395 582.576L909.377 576.496L905.526 571.16L903.414 576.248L898.568 575.379L901.923 569.919L899.686 569.299L894.22 573.145L886.393 573.642L884.156 571.904L887.759 565.576L891.984 565.452L899.189 567.81L904.408 568.306M904.408 568.306L904.408 568.182L909.004 562.97L918.695 560.861L927.641 561.853L929.007 560.116L929.007 559.992M1174.38 220.484L1181.59 213.535L1185.44 208.199L1186.19 209.688L1204.32 201.622L1204.7 201.25M1174.38 220.484V220.608L1173.02 226.192L1170.53 226.813L1169.41 221.725L1169.66 222.345M1182.58 97.1393L1180.97 99.1247L1179.1 98.7524L1178.11 106.942V107.066M1182.58 97.1393L1200.6 139.33L1200.85 140.198L1208.67 149.753M1182.58 97.1393L1182.83 96.8911L1186.06 97.3874L1189.04 91.6793L1186.56 89.818L1190.16 78.1536L1188.79 63.0147L1187.18 55.5693L1191.78 32.7369L1195.01 31.496L1197.37 35.8392L1200.1 36.3355L1210.16 27.8975L1219.23 32.6128L1231.66 59.4161V64.5038L1236.25 66.1169L1240.35 64.876V67.8542L1242.84 72.9418L1249.55 74.3068L1255.88 80.6354L1253.15 87.2121L1246.94 92.2997L1244.7 91.8034L1244.08 97.3874L1234.64 100.986L1235.63 106.074L1228.05 106.57L1226.32 116.497L1221.59 122.205L1214.39 125.556L1212.28 132.008L1213.39 133.125L1212.15 139.702L1210.16 142.184L1209.92 149.257L1208.67 149.629V149.753M1178.11 107.066L1176.49 107.687L1169.66 110.169L1162.95 112.775L1147.55 118.359L1146.68 118.607M1146.68 118.607L1145.93 118.979L1119.97 127.665L1114.75 133.249L1108.91 144.417L1109.16 146.899L1101.45 158.563L1106.17 160.177L1107.54 168.987L1102.07 176.184L1085.67 186.111L1082.57 184.87L1070.39 186.608L1059.09 193.433L1059.71 197.031L1063.68 200.506L1061.45 211.425L1052.5 221.849L1052.38 221.973M919.441 440.866L919.938 441.859L921.677 442.976L922.422 493.852L922.671 521.772L929.007 559.992M919.441 440.866L919.316 440.618L940.189 437.764L950.128 436.523L970.007 433.297L973.734 432.676M929.007 559.992L929.504 559.868L935.095 560.985L936.586 549.941L939.071 556.145L943.295 559.992L951.371 555.277L950.501 554.532L950.749 554.656M950.749 554.656L945.159 541.875L998.831 533.189L1002.43 532.568M950.749 554.656L951.122 554.78L949.755 559.868L953.731 558.131L958.08 554.284L965.534 554.036L974.107 550.933L979.946 551.802L978.579 553.911L989.264 557.51L998.458 561.977L1000.57 566.941L1007.4 565.452L1023.55 552.298L1029.52 552.547L1053.87 570.912L1058.84 569.919L1064.06 576.868L1065.05 587.912L1063.44 594.861L1064.18 598.335L1068.53 607.022L1066.54 600.197L1072.13 600.073L1072.63 605.036L1069.65 612.73L1079.96 626.876L1083.81 627L1080.58 622.657L1084.56 623.153L1086.92 621.664L1085.92 629.606L1091.27 633.825L1094.87 643.504L1099.71 646.482L1105.93 648.095L1114.5 659.015L1118.97 661.373L1113.01 661.745L1115.74 664.847L1125.56 661.621L1130.4 658.891L1134.87 643.256L1132.64 618.934L1132.14 616.452L1120.21 596.598L1110.03 582.204L1104.31 570.415L1109.16 574.51L1110.15 573.766L1112.26 584.065L1117.73 591.883L1112.39 581.459L1112.64 576.496L1096.61 557.014L1092.76 550.933L1087.66 540.634L1084.18 531.948L1081.45 528.845L1080.83 524.875L1080.71 524.75M1002.43 532.568V532.444L999.079 526.116L998.831 517.057L996.097 512.094L997.464 502.415L999.7 499.933L990.506 483.553L973.858 432.925L973.734 432.676M1002.43 532.568L1002.31 532.692L1006.53 539.269L1065.18 531.948L1066.91 536.415L1068.78 526.86L1072.13 524.254L1080.71 524.75M973.734 432.676L975.97 432.428L986.531 430.443L989.14 429.946L998.831 428.085L1000.57 427.837M1093.13 684.081V683.957M1076.23 685.942V686.067M1075.98 686.067V685.942M1123.57 667.949L1123.44 667.825M1121.33 665.964L1121.21 665.84M1128.17 660.38H1128.04M1063.31 579.97L1062.94 579.598M1080.71 524.75L1079.96 511.349L1081.57 508.495L1080.71 503.159L1082.44 498.072L1085.05 495.217L1083.19 493.48L1087.54 488.144H1087.41M1025.91 422.501L1024.3 422.873L1019.58 423.866L1002.18 427.465L1000.57 427.837M1025.91 422.501L1022.44 429.326L1023.06 431.808L1034.36 436.523L1040.2 443.969L1064.18 464.071L1069.77 466.677L1079.96 481.195L1087.41 488.144M1025.91 422.501H1026.29L1067.54 409.472L1074.49 413.07L1088.53 413.567L1098.84 411.581L1126.55 429.078M1000.57 427.837L1000.57 426.596L1000.45 421.136L1005.04 418.654L1005.29 415.428L1010.51 410.589L1015.48 409.348L1025.67 400.165L1029.52 394.457L1032.5 395.574L1039.21 388.997L1042.81 388.625L1046.04 382.048L1047.41 382.172L1047.28 376.836L1047.91 374.975M1087.41 488.144L1088.66 482.436L1086.67 476.976L1092.01 480.947L1094.99 478.589L1089.9 474.37L1096.11 473.998L1105.8 465.808L1104.68 463.699L1110.65 459.107L1110.03 456.874L1114.37 454.144L1114.62 447.815L1121.46 435.158L1126.05 429.326L1126.55 429.078M1126.55 429.078L1127.05 428.706L1139.84 423.494L1139.97 416.669L1144.57 408.355L1149.53 403.64L1159.85 396.815L1161.21 394.333L1163.95 395.574L1165.19 387.384L1163.7 390.238L1158.48 391.975L1153.51 392.099L1159.6 387.632L1157.73 385.647L1159.85 381.179L1148.17 379.318L1147.67 378.698L1157.61 376.836L1160.84 378.449L1164.94 378.077L1168.3 375.595L1170.78 370.756L1173.02 370.135L1172.64 363.311L1169.79 360.581L1166.93 363.186L1167.55 369.763L1165.44 361.697L1163.82 361.325L1151.52 366.413L1156.99 361.077L1157.24 358.967L1162.95 357.602L1164.57 353.383L1168.42 355.617L1164.32 349.537L1161.46 347.055M912.732 368.15L912.235 368.026L912.359 356.982L915.092 354.997L919.813 343.953L918.819 339.113L915.713 333.281L917.453 326.704L908.756 265.528M912.732 368.15L913.229 368.026L915.092 364.551H919.689L925.28 362.69L932.237 365.296L932.983 362.442L936.959 359.464L942.922 360.332L946.152 354.004L954.974 354.748L954.849 351.15L962.676 340.85L961.434 336.135L966.901 336.011L973.609 330.675L971.994 324.595L972.243 324.346M908.756 265.528L907.514 264.163L904.283 256.842L901.674 254.112L900.556 246.915V246.667M908.756 265.528L909.501 266.273L911.738 267.39L913.601 267.514L918.447 265.28L921.677 262.674M900.556 246.667L900.059 244.805V238.973L896.705 232.769L895.835 224.951L897.45 216.265L896.58 209.564L899.562 201.25L898.444 199.885L898.692 192.192L900.307 186.359L898.444 184.374L894.841 185.615L892.853 190.827L888.132 193.557L889.623 186.98L893.847 181.396L894.095 178.914L894.22 178.79M921.677 262.674L937.083 260.192L941.431 259.324L960.44 255.973L960.813 257.587M921.677 262.674L922.422 262.178L928.386 248.528L929.504 236.367L928.386 229.791L919.441 212.666L920.683 208.323L919.689 199.513L921.428 192.44L920.062 185.615L922.795 183.505L926.895 177.053L930.374 169.731V179.41L934.225 176.68L933.356 168.987L937.331 164.023L936.834 158.439L942.052 151.987L953.607 155.337L954.849 157.198L967.273 159.308L972.864 171.717L972.491 186.359L968.888 194.673L967.149 195.294L968.391 203.608L972.491 204.352L976.716 196.411L975.846 195.294L983.922 189.71L986.158 190.33L990.506 195.17L995.476 208.323L998.83 214.528L999.203 224.455L997.837 227.061L994.234 224.951L989.637 236.491L990.009 243.192L985.909 251.258L986.034 251.63M972.243 324.346L971.994 322.237L964.54 278.309L961.185 259.572L960.813 257.587M972.243 324.346L973.237 323.354L979.325 322.609L982.555 324.223L988.891 329.682L990.631 328.938L997.34 331.916L1000.57 329.434L1004.3 330.923L1007.28 330.179L1012 325.587L1014.36 329.558L1019.58 332.536L1019.83 332.785M960.813 257.587L962.055 257.214L970.255 255.477L978.082 253.616L986.034 251.63M1006.91 383.785L1007.78 382.793L1017.09 377.829L1024.3 368.398L1025.29 365.172L1030.01 361.449L1035.98 353.88L1036.85 352.639M1006.91 383.785L1009.14 383.413L1030.39 379.07L1038.84 377.333L1045.92 375.347L1047.91 374.975M1036.85 352.639L1036.48 352.515H1033.37L1029.39 350.281L1022.31 341.719L1019.83 333.033V332.785M1036.85 352.639L1037.1 352.763L1038.46 356.61L1046.29 359.464L1049.4 356.734L1052.63 356.237L1059.46 350.902L1067.78 348.42L1070.02 344.821L1070.52 337.376L1073.5 331.668L1077.23 314.792L1084.81 317.397L1087.29 310.076L1091.14 305.857L1097.48 293.821L1097.23 286.623L1108.78 291.587L1109.53 286.375V286.251M1019.83 332.785L1025.17 330.179L1027.03 326.084L1025.54 321.865L1029.77 315.412L1032.87 314.916L1032.5 309.456L1037.59 302.507L1038.46 303.5L1043.06 300.025L1047.04 294.069L1047.66 266.893L1047.91 266.769M1165.06 345.938L1164.82 346.062L1164.44 346.186M1165.06 345.938L1176.74 363.062L1171.4 357.727L1164.57 346.186H1164.44M1165.06 345.938L1164.57 344.945L1159.47 337.128L1153.14 338.244L1150.28 340.602L1147.55 338.12L1138.23 335.018L1131.77 334.77L1144.32 333.653L1151.27 338.369L1153.26 335.266L1147.67 328.193L1151.65 328.441L1149.53 322.733L1144.56 322.982L1132.76 313.427H1131.27L1147.92 321.617L1146.8 315.908L1147.92 314.047L1139.47 310.821L1132.14 310.324L1128.54 307.098L1125.56 308.959L1124.44 300.397L1125.68 300.645L1125.43 293.696L1125.18 293.448M1164.44 346.186L1162.46 342.464L1161.83 342.339L1162.7 346.558L1162.83 346.683M1162.83 346.683L1161.83 346.931M1162.83 346.683L1162.95 346.807L1163.2 346.683V346.435M1161.83 346.931L1162.08 347.055H1164.19L1163.95 346.31M1161.83 346.931L1160.96 346.062L1161.09 346.434L1161.46 347.055M1163.95 346.31L1163.57 346.435H1163.2M1163.95 346.31L1163.7 345.69L1163.2 346.435M1047.91 374.975L1048.03 375.223L1080.08 369.267L1111.77 361.201L1161.46 347.055M1040.08 232.769L1035.61 235.623L1026.04 242.944L1019.83 250.514L1014.98 251.258L1006.04 256.346L1001.07 253.368L986.034 251.63M1040.08 232.769L1040.82 232.148L1046.91 225.944L1050.27 223.586L1052.38 221.973M1040.08 232.769L1044.18 250.762L1047.28 264.163L1047.91 266.769M1047.91 266.769L1053.37 290.346L1071.01 286.003L1073.5 285.383M1161.21 328.193L1161.09 327.201M1164.2 306.105L1162.58 306.726L1160.1 307.843L1159.23 308.96M1164.2 306.105V306.23L1162.7 312.806L1159.47 322.858L1157.73 330.551L1156.62 327.573L1159.6 309.084L1159.23 308.96M1164.2 306.105L1164.07 305.857L1167.3 296.302V295.93L1166.68 293.448L1166.68 293.324M1159.23 308.96L1159.1 308.959L1156.37 305.857L1152.14 305.981L1152.39 299.901L1149.91 304.244L1145.43 302.755L1142.7 297.667L1147.92 295.93L1141.83 293.697L1143.94 288.609L1142.83 281.66L1140.84 285.879L1138.73 282.28L1139.47 271.609L1137.48 278.806L1134.75 281.039L1137.36 286.624L1136.74 291.711L1139.1 300.521L1142.08 303.5L1138.73 303.003L1134.63 297.543L1136.24 302.631L1142.83 304.865L1144.94 310.821L1139.84 308.463L1132.14 308.091L1124.44 303.127L1126.8 295.93L1126.8 295.806M1166.68 305.113L1166.31 305.237M1166.68 305.113L1166.06 308.215L1165.56 309.58L1166.18 305.733L1166.31 305.237M1166.68 305.113L1166.8 304.616L1167.67 297.916L1166.93 302.879L1166.43 304.989L1166.31 305.237M1125.18 293.448L1124.93 293.572L1124.69 293.448L1124.07 292.952M1125.18 293.448L1125.43 293.573L1126.3 294.069L1126.55 294.441V295.31L1126.8 295.806M1124.07 292.952L1123.69 292.58L1119.72 290.842L1115.62 287.864L1109.9 286.375L1109.53 286.251M1124.07 292.952L1124.56 291.959L1126.67 291.835L1128.41 292.828L1126.8 295.806M1109.53 286.251L1105.93 280.047L1098.47 279.178L1094.12 282.529V285.01L1090.4 285.879L1084.93 289.726L1082.07 290.346L1076.36 298.412L1073.5 285.383M894.22 178.79L888.256 172.834V164.396L881.547 158.936L872.353 158.315L862.911 155.833L842.536 149.629L838.56 147.395M894.22 178.79L894.22 178.666L899.065 164.644L904.904 160.549L909.377 155.585L910.123 160.052L914.72 152.979L925.777 148.76L926.647 147.023L937.828 148.388L942.177 150.622L944.289 145.162L946.277 146.403L954.974 145.038L952.861 141.563L949.01 139.33L949.755 131.264L942.177 135.483L935.219 134.614L932.983 129.278L933.728 127.541L924.286 132.008L918.198 132.381L907.265 139.081L906.023 141.563L899.314 139.95L895.089 141.811L886.641 134.49L867.881 128.782L867.508 126.548L855.457 138.089L848.623 139.826L838.933 147.147L838.56 147.395M1073.5 285.383L1075.74 284.762L1084.56 282.404L1133.13 268.879L1141.96 266.149L1144.07 265.528M1144.07 265.528L1144.57 267.39L1154.88 296.799L1166.68 293.324M1144.07 265.528L1145.06 263.047L1147.3 261.309H1150.28M1166.68 293.324L1166.56 293.076H1166.8L1167.18 293.2M1167.18 293.2L1167.43 293.076M1167.18 293.2L1167.43 293.945V295.434V293.076M1167.43 293.076L1167.18 292.58L1164.19 284.638L1149.66 270.864L1150.28 261.309M1150.28 261.309L1150.65 260.192L1155.5 254.733L1156 253.864L1156.37 253.616M1169.66 222.345L1156.62 219.119L1154.38 218.499L1152.27 218.002M1169.66 222.345L1168.79 231.9L1167.3 237.856L1173.14 237.732L1174.01 242.075V255.353L1171.4 261.433L1172.77 266.521L1169.29 268.879L1168.79 275.704L1165.44 280.419L1165.31 274.711L1150.65 269.747L1150.03 262.922L1156.12 253.988L1156.37 253.616M1152.27 218.002L1147.05 229.542L1149.29 232.272L1149.16 240.586L1151.52 240.959L1156.37 253.616M1152.27 218.002L1152.02 217.506L1143.94 214.031L1142.58 210.929L1135.62 205.593L1097.6 217.009L1059.83 227.309L1053.25 225.696L1052.38 221.973M134.239 694.877V695.001M130.884 692.147V692.023M150.514 698.475H150.266M224.065 700.957V701.081M227.171 698.724L227.047 698.476M233.631 691.402H233.507M241.956 687.432L242.08 687.307M245.683 685.943L245.807 685.818M257.858 683.957L257.734 683.833M310.288 661H310.537M190.396 638.789L190.52 638.292M287.179 654.424V654.051M228.165 634.818V634.693M228.165 634.321L228.041 634.073M230.401 631.095H230.277M207.292 618.81L207.044 618.686M227.419 617.941V617.693M1224.08 195.666L1223.71 195.418V195.79L1224.08 195.666ZM1220.35 192.316L1221.22 191.943V191.447L1220.35 192.316ZM1235.76 182.637L1235.63 180.899L1235.38 179.907L1235.76 182.637ZM532.927 658.395L529.076 655.541L525.722 656.409L526.467 663.358L521.87 669.066L525.846 678.125L526.964 687.432L531.561 690.41L534.418 685.818L539.512 682.096L545.724 680.483L552.558 674.65L545.849 668.942L545.724 665.468L532.927 658.395ZM510.316 648.343L508.452 646.73L506.713 649.088L510.316 648.343ZM500.998 643.008L501.495 638.416L499.134 638.044L500.998 643.008ZM508.825 635.438L506.713 636.431L508.204 641.146L511.434 641.394L512.428 645.489L515.907 646.978L523.609 643.38L516.403 637.424L508.825 635.438ZM492.922 630.351L491.804 633.701L497.146 633.577L502.116 634.818L499.507 630.723L492.922 630.351ZM477.268 620.547L474.41 617.818L468.944 622.037L472.422 628.489L474.907 625.883L481.989 627.372L481.368 624.394L477.268 620.547ZM421.608 615.088L422.353 613.35L424.465 612.234L421.608 615.088ZM441.362 603.795L432.665 607.022L431.796 609.379L435.274 611.861L440.12 613.102L443.598 606.277L441.362 603.795ZM381.105 580.963V580.839H380.857L381.105 580.963ZM315.258 564.707V564.956H315.382L315.258 564.707ZM278.234 555.277H277.985V555.401L278.234 555.277ZM239.968 523.137L239.843 522.765V522.889L239.968 523.137ZM154.863 495.962L154.49 496.334L154.739 496.458L154.863 495.962ZM14.2222 410.092L14.5949 409.968V409.72L14.2222 410.092ZM245.931 98.5043L246.056 96.3947L245.807 96.5188L245.931 98.5043ZM272.395 87.2122L273.14 85.9713L272.27 85.8472L272.395 87.2122ZM270.034 84.9785L270.779 82.4968L270.034 82.2486V84.9785ZM279.104 81.38L278.979 78.8982L276.867 82.1245L279.104 81.38ZM279.352 76.1682L279.725 73.6864L279.476 73.066L279.352 76.1682ZM279.725 64.0075L279.6 62.6425L279.104 62.5184L279.725 64.0075ZM283.701 55.8176L282.582 55.6935L280.346 59.168L283.701 55.8176ZM280.594 52.4672L281.216 51.9708L281.34 51.5986L280.594 52.4672ZM279.973 52.8394L279.601 50.3577L278.482 52.4672L279.973 52.8394ZM279.352 49.365L278.234 48.8686L279.104 50.1095L279.352 49.365ZM283.079 51.4745V49.8613L282.707 50.4818L283.079 51.4745ZM284.197 49.8613L283.701 49.489H283.576L284.197 49.8613ZM277.116 47.1313L276.495 46.635L276.246 46.5109L277.116 47.1313ZM281.713 46.635L278.358 47.5036L279.228 47.7518L281.713 46.635ZM278.979 46.3868L278.358 45.6423L278.234 45.7664L278.979 46.3868ZM281.588 44.8977H281.091L281.713 45.1459L281.588 44.8977ZM263.698 465.064L264.195 467.794V468.29L263.698 465.064ZM245.434 454.392L246.304 456.253L246.801 456.129L245.434 454.392ZM267.176 454.02L267.549 457.246L269.786 458.859L267.176 454.02ZM252.143 436.399L250.777 436.027L251.895 436.523L252.143 436.399ZM238.353 432.676L234.998 434.662L235.868 435.53L238.353 432.676ZM231.892 430.319L231.644 431.311L232.762 431.56L231.892 430.319ZM242.825 432.801L248.292 435.903L249.286 435.034L242.825 432.801ZM213.753 324.098L213.629 323.726V324.222L213.753 324.098ZM253.137 106.198L252.765 105.081L252.64 105.95L253.137 106.198ZM881.92 599.949L880.305 600.321L879.559 601.065L881.92 599.949ZM887.138 599.949L886.268 599.576L886.02 599.949H887.138ZM890.12 598.956H889.25L888.753 599.576L890.12 598.956ZM888.629 598.087L888.38 597.715L888.256 598.087H888.629ZM898.568 591.511L898.195 591.759H898.817L898.568 591.511ZM915.962 584.189L916.707 583.197L915.838 584.313L915.962 584.189ZM918.447 580.963L918.198 581.087V581.211L918.447 580.963ZM854.587 591.883L856.451 589.525L851.357 588.16L849.12 590.022L854.587 591.883ZM906.147 581.087L905.65 580.591L905.526 580.839L906.147 581.087ZM907.513 578.854L906.271 578.481L906.644 579.722L907.513 578.854ZM920.186 575.131L920.062 575.007L920.186 575.255V575.131ZM919.192 574.883L918.944 574.758L918.819 575.131L919.192 574.883ZM910.495 574.51L911.614 574.138V573.766L910.495 574.51ZM911.117 573.89L911.738 573.269L911.613 573.145L911.117 573.89ZM906.768 569.299L906.52 569.547H906.644L906.768 569.299ZM734.695 686.439L728.731 663.979V668.198L734.695 686.439ZM733.328 646.978L729.104 654.92L728.607 657.526L733.328 646.978ZM736.682 641.146L740.658 635.935L737.801 637.672L736.682 641.146ZM750.722 628.489L741.404 633.329L744.013 632.832L750.722 628.489ZM751.964 626.752L754.573 624.642L753.579 624.891L751.964 626.752ZM1211.53 194.425L1211.41 191.819L1211.03 192.812L1211.53 194.425ZM1214.02 192.44L1212.4 189.338L1212.28 192.564L1214.02 192.44ZM1094 684.329H1093.75L1093.87 684.453L1094 684.329ZM1092.88 684.205V684.329H1093.01L1092.88 684.205ZM1074.87 686.067H1074.74V686.191L1074.87 686.067ZM1110.15 678.249H1110.03L1110.15 678.497V678.249ZM1113.5 677.38V677.132L1113.26 677.504L1113.5 677.38ZM1112.26 677.132L1111.77 676.636L1111.64 676.76L1112.26 677.132ZM1111.89 678.125L1110.4 676.263L1111.27 677.877L1111.89 678.125ZM1123.69 670.804V671.3L1123.94 671.052L1123.69 670.804ZM1125.43 669.563L1125.8 668.942L1125.31 669.439L1125.43 669.563ZM1125.8 668.322H1125.68V668.446L1125.8 668.322ZM1124.69 666.088L1124.56 665.964V666.212L1124.69 666.088ZM1125.56 663.11L1125.31 663.234L1125.68 663.358L1125.56 663.11ZM1126.05 663.11L1125.8 662.862L1125.93 663.234L1126.05 663.11ZM1125.18 662.862L1125.06 662.738V662.986L1125.18 662.862ZM1129.78 661.993V661.869L1129.53 662.365L1129.78 661.993ZM1124.56 662.49H1124.31L1124.56 662.614V662.49ZM1127.17 661H1126.8L1126.67 661.125L1127.17 661ZM1117.73 660.876V660.628L1117.6 660.876H1117.73ZM1118.85 660.504H1118.47L1118.85 661.249V660.504ZM1115.87 660.628V659.884L1115.24 660.008L1115.87 660.628ZM1114.13 659.387L1114.75 660.008V659.76L1114.13 659.387ZM1132.39 660.132L1130.15 661.125L1130.9 661.249L1132.39 660.132ZM1115 659.015H1114.25V659.263L1115 659.015ZM1134.63 652.811L1134.75 652.19L1134.87 650.577L1134.63 652.811ZM1134.75 645.862L1134.25 644.621L1134 645.117L1134.75 645.862ZM1106.05 648.964L1105.8 649.336L1106.42 649.46L1106.05 648.964ZM1103.69 647.847L1102.57 648.219L1103.44 648.343L1103.69 647.847ZM1101.21 648.095V647.723L1101.08 647.847L1101.21 648.095ZM1098.6 647.971L1097.85 648.467L1098.84 648.964L1098.6 647.971ZM1102.07 648.095L1101.95 647.723L1101.33 647.599L1102.07 648.095ZM1085.8 635.934L1085.05 636.307L1086.54 636.803L1085.8 635.934ZM1082.82 631.964L1081.82 630.475L1082.2 631.591L1082.82 631.964ZM1086.67 634.445L1084.93 630.475L1083.69 630.102L1086.67 634.445ZM1081.7 629.482L1081.33 628.489L1081.08 627.869L1081.7 629.482ZM1071.39 615.708L1069.15 614.095L1070.02 614.963L1071.39 615.708ZM1127.3 607.394L1118.23 592.255H1117.73L1127.3 607.394ZM1064.55 583.197L1064.18 583.072L1064.55 583.321V583.197ZM1063.81 582.328L1063.68 582.452L1063.81 582.576V582.328ZM1062.94 581.087V580.963L1062.81 581.087H1062.94ZM1063.44 580.591L1063.81 580.839V580.591H1063.44ZM1064.18 580.094L1063.68 580.218H1063.81L1064.18 580.094ZM1062.44 578.605H1062.19L1062.57 578.729L1062.44 578.605ZM1063.31 577.116H1062.81L1062.69 577.24L1063.31 577.116ZM1063.81 577.364L1063.19 576.744L1063.44 576.868L1063.81 577.364ZM1059.09 572.029L1058.84 571.904V572.029H1059.09ZM1053.74 572.029L1053.37 571.532L1053.5 572.153L1053.74 572.029ZM1008.52 567.934L1012.25 565.079L1008.15 567.809L1008.52 567.934ZM1015.98 561.977L1016.35 561.605L1014.86 562.225L1015.98 561.977ZM968.764 553.663L955.222 558.006L962.677 555.897L968.764 553.663ZM1082.69 506.385L1082.57 502.663L1081.7 505.889L1082.69 506.385ZM1084.06 500.677L1083.56 497.823L1083.19 499.561L1084.06 500.677ZM917.453 566.072L916.832 566.196V566.321L917.453 566.072ZM929.007 564.583H927.268L928.883 564.707L929.007 564.583ZM914.595 565.824L914.098 566.32L914.223 566.445L914.595 565.824ZM926.274 564.831H921.553L926.025 564.956L926.274 564.831ZM1139.47 424.735L1138.1 426.1L1138.35 426.348L1139.47 424.735ZM1140.46 417.538L1139.84 418.53L1140.09 419.523L1140.46 417.538ZM1147.92 405.997L1146.06 407.238L1145.06 408.727L1147.92 405.997ZM1163.95 398.18L1163.2 397.683L1161.59 397.559L1163.95 398.18ZM1160.59 397.435H1159.47L1157.61 398.428L1160.59 397.435ZM1164.44 398.8L1168.05 389.866L1165.56 393.588L1164.44 398.8ZM1169.79 387.012L1171.4 384.654H1170.53L1169.79 387.012ZM1180.22 377.333L1177.49 363.559L1179.85 370.756L1180.22 377.333ZM1158.98 332.536V333.157L1159.6 332.785L1158.98 332.536ZM1160.47 329.682L1160.22 331.296L1159.85 331.916L1160.47 329.682ZM1161.59 326.456L1161.71 325.712L1161.46 326.456H1161.59ZM1162.33 323.106L1162.7 322.237L1162.08 324.471L1162.33 323.106ZM1162.46 321.244L1162.95 318.514L1162.33 319.135L1162.46 321.244ZM1164.69 308.96L1164.94 307.843L1164.82 308.091L1164.69 308.96ZM903.414 172.337L900.308 176.184L898.444 181.768L899.314 184.87L903.414 172.337ZM832.099 143.176L833.963 140.57L832.596 141.811L832.099 143.176ZM834.957 139.081L834.336 138.337L832.969 139.206L834.957 139.081ZM832.224 139.454L831.975 138.585L831.105 138.957L832.224 139.454ZM827.751 138.585L828.124 137.841L827.875 137.592L827.751 138.585ZM836.82 136.476L836.448 134.738L836.075 136.848L836.82 136.476ZM1173.51 265.032L1172.89 263.543V265.032H1173.51ZM1174.76 260.441L1175.13 256.718L1174.38 259.944L1174.76 260.441ZM1169.29 232.396L1167.43 235.002L1166.93 235.747L1169.29 232.396ZM1186.43 226.316L1192.65 220.856V220.608L1186.43 226.316ZM1170.16 230.163V225.944L1169.79 228.177L1170.16 230.163ZM1198.98 210.309L1197.49 209.936L1197.24 211.053L1198.98 210.309ZM1202.34 208.075L1202.21 209.316L1202.46 208.571L1202.34 208.075ZM1198.86 208.199L1190.53 215.893L1177.74 221.353L1174.38 224.207L1174.13 226.937L1170.66 229.791L1171.15 233.513L1176.49 231.404L1184.32 225.075L1193.02 220.484L1206.19 208.075L1196.87 215.148L1193.89 216.389L1198.86 208.199ZM1202.71 202.987L1203.21 202.243L1201.72 203.98L1202.71 202.987ZM1063.06 198.396L1061.08 198.148L1062.57 200.133L1063.06 198.396ZM1104.31 160.425L1104.56 159.06L1103.57 160.301L1104.31 160.425ZM1104.93 151.49L1104.44 151.739L1103.81 153.104L1104.93 151.49ZM1211.9 151.366H1211.78L1212.03 151.49L1211.9 151.366ZM1221.1 124.935L1220.1 123.446V124.191L1221.1 124.935ZM1219.36 123.57V122.329L1219.23 121.585L1219.36 123.57ZM1223.83 118.359L1223.58 118.234L1223.71 118.607L1223.83 118.359ZM1236.25 112.154L1236.01 110.293L1235.51 111.161L1236.25 112.154ZM1233.15 112.899L1233.27 111.534L1231.78 111.782L1233.15 112.899ZM1237.75 108.804H1237.25V109.052L1237.75 108.804ZM1231.53 110.665L1230.42 110.417L1230.29 111.534L1231.53 110.665ZM1237.87 106.818L1238.99 107.687L1238.62 106.694L1237.87 106.818ZM1234.52 106.942L1233.4 109.052L1234.89 108.307L1234.52 106.942ZM1229.17 107.066L1228.68 107.811L1229.05 108.928L1229.17 107.066ZM1236.5 102.971L1236.38 101.979L1236.01 102.599L1236.5 102.971ZM1235.88 103.468L1234.76 102.475V103.344L1235.88 103.468ZM1228.92 106.322L1228.68 104.957L1228.18 106.074L1228.92 106.322ZM1240.73 101.979L1238.86 104.709L1238.74 102.723L1240.73 101.979ZM1249.8 93.6648L1248.93 92.4239L1248.43 92.6721L1249.8 93.6648ZM1253.15 88.0808L1252.41 87.7085L1252.28 88.0808H1253.15ZM1254.77 78.4018H1253.65L1254.89 78.7741L1254.77 78.4018ZM1256.63 79.6427L1256.26 77.4091L1255.26 77.285L1256.63 79.6427ZM1254.64 77.6573L1254.39 75.2996L1253.52 76.9127L1254.64 77.6573ZM921.553 176.68L920.932 175.688L920.807 176.929L921.553 176.68ZM923.541 174.447L922.05 172.461L921.801 173.33L923.541 174.447ZM924.783 165.512L923.541 164.396V164.644L924.783 165.512ZM948.265 150.87L945.034 151.118L947.022 152.607L948.265 150.87ZM929.38 154.096H928.386L929.504 154.593L929.38 154.096ZM951.122 138.337L949.88 136.351L949.383 136.476L951.122 138.337ZM882.541 119.227L868.005 126.424L872.85 131.14L874.714 126.424L879.684 120.344L882.541 119.227ZM866.266 102.227L856.326 109.052L855.829 112.402L863.657 106.694L866.266 102.227ZM129.642 694.132L129.021 694.38L129.518 694.505L129.642 694.132ZM132.002 692.767V693.14L132.251 693.015L132.002 692.767ZM133.245 693.388V693.14L133.121 693.264L133.245 693.388ZM132.996 693.14V693.015H132.748L132.996 693.14ZM36.0886 611.613L35.9644 612.482L36.2128 614.963L36.0886 611.613ZM35.4674 608.263L35.5916 609.379L35.7159 609.007L35.4674 608.263ZM132.996 691.651L133.121 690.906L132.624 691.154L132.996 691.651ZM147.16 697.731L147.036 697.607L147.284 698.103L147.16 697.731ZM137.966 693.388L136.599 692.147V695.125L137.966 693.388ZM141.072 696.118L140.948 695.249L138.836 695.125L141.072 696.118ZM148.527 697.855L148.402 698.103H148.651L148.527 697.855ZM149.023 697.979H148.775L149.272 698.103L149.023 697.979ZM40.8097 614.343L41.3067 614.467L41.6794 614.343H40.8097ZM147.781 696.738L146.787 696.614L147.16 696.986L147.781 696.738ZM34.1007 604.664L32.3614 603.92L32.2371 604.292L34.1007 604.664ZM150.887 696.986L150.639 696.862V696.986H150.887ZM158.466 698.475L153.62 698.848L152.502 699.344L158.466 698.475ZM25.2797 585.182H23.913L24.1615 585.554L25.2797 585.182ZM173.499 704.184V703.687H173.25L173.499 704.184ZM179.959 704.308L180.208 704.06L179.959 703.811V704.308ZM184.805 705.673L185.053 705.549H184.929L184.805 705.673ZM180.829 703.439L180.705 702.943H180.456L180.829 703.439ZM189.153 705.3L189.029 705.425H189.153V705.3ZM26.0251 578.854L24.1615 579.102L26.5221 581.211L26.0251 578.854ZM182.568 703.439L182.817 702.695H182.693L182.568 703.439ZM203.565 701.578L203.689 701.33L203.441 701.205L203.565 701.578ZM200.459 700.461L196.111 704.308L199.217 704.06L202.82 701.206L200.459 700.461ZM208.286 701.826L207.417 701.578L208.038 702.074L208.286 701.826ZM210.026 701.95L208.659 701.578L208.411 701.702L210.026 701.95ZM205.305 700.213H203.938L206.299 700.833L205.305 700.213ZM211.02 701.454L210.895 701.206L210.398 701.33L211.02 701.454ZM207.292 699.965L206.795 699.716V701.081L207.292 699.965ZM223.195 703.067L223.071 702.943H222.822L223.195 703.067ZM223.444 702.943V702.819L223.195 702.694L223.444 702.943ZM221.332 702.198L221.58 702.695V702.57L221.332 702.198ZM222.45 702.198L221.332 701.826L222.698 702.819L222.45 702.198ZM238.85 702.819L238.601 702.322H238.477L238.85 702.819ZM372.533 694.505L372.284 694.257L372.408 694.505H372.533ZM221.953 698.351V698.227L221.829 698.351H221.953ZM376.136 692.271L376.508 692.767H376.757L376.136 692.271ZM240.34 701.578L240.216 701.702V702.074L240.34 701.578ZM224.935 699.344L225.183 698.351H225.059L224.935 699.344ZM383.342 689.417L382.223 690.038L383.217 690.534L383.342 689.417ZM217.853 695.994L214.747 696.614L212.014 700.213L217.853 695.994ZM240.092 700.709L239.347 701.33L240.092 701.205V700.709ZM383.342 688.797L383.093 688.3L382.969 688.548L383.342 688.797ZM228.165 697.483L227.295 697.359L228.165 698.227V697.483ZM375.142 690.41L374.893 690.658L375.142 691.527V690.41ZM230.153 697.359L229.78 697.483L230.277 697.855L230.153 697.359ZM239.347 699.965H238.974L238.725 699.716L239.347 699.965ZM229.159 697.359L228.538 696.986L228.786 697.359H229.159ZM237.483 698.724L236.365 699.096L235.619 701.081L237.483 698.724ZM372.408 690.038V690.906L372.905 690.286L372.408 690.038ZM222.822 694.753L223.816 694.505H223.692L222.822 694.753ZM221.58 694.008L221.332 693.76V693.884L221.58 694.008ZM372.408 689.169L372.16 689.045L372.036 689.417L372.408 689.169ZM236.116 696.614L235.868 696.49L235.619 696.862L236.116 696.614ZM371.166 689.417L371.29 688.797L371.042 688.672L371.166 689.417ZM370.172 688.797L369.799 689.293L370.421 689.417L370.172 688.797ZM241.334 694.877L241.086 694.629H240.962L241.334 694.877ZM369.799 686.563L370.793 686.935L371.166 686.439L369.799 686.563ZM371.29 685.694L370.918 685.943L371.539 686.315L371.29 685.694ZM368.433 686.439L368.184 685.943L367.936 686.191L368.433 686.439ZM380.857 681.848L379.242 686.439L380.857 685.446V681.848ZM369.924 683.585L368.805 684.702L369.054 685.943L369.924 683.585ZM254.255 693.512V693.016L254.131 693.264L254.255 693.512ZM368.557 682.344L372.16 687.804L380.236 692.892L378.372 688.548L370.669 681.972L368.557 682.344ZM249.286 691.527L249.162 691.154L248.913 691.278L249.286 691.527ZM372.781 680.234L372.284 682.096L373.154 681.475L372.781 680.234ZM375.39 680.234L375.266 681.475L376.384 681.848L375.39 680.234ZM253.262 689.913L252.64 689.789L252.019 690.037L253.262 689.913ZM266.058 690.906L265.561 691.775L265.81 691.03L266.058 690.906ZM267.922 691.03L266.804 691.154L267.425 691.899L267.922 691.03ZM192.632 675.147L193.874 675.767L193.626 675.519L192.632 675.147ZM242.328 687.307H242.453V687.183L242.328 687.307ZM370.793 677.753L371.415 680.11L372.657 679.366L370.793 677.753ZM365.451 678.745L366.072 684.453L367.315 683.213L365.451 678.745ZM366.072 676.884L368.93 680.855L368.557 678.249L366.072 676.884ZM357.251 677.877L356.506 680.234L357.5 678.621L357.251 677.877ZM269.661 684.205L269.413 683.833L269.661 684.329V684.205ZM357.5 676.015L362.469 684.205L361.724 678.621L357.5 676.015ZM276.619 680.359L276.246 680.731L276.867 680.979L276.619 680.359ZM275.004 680.607L275.128 680.234H274.631L275.004 680.607ZM273.761 680.607L270.531 682.716L266.555 687.928L268.543 690.038L277.737 683.213L273.761 680.607ZM352.157 672.541L351.287 672.045V672.789L352.157 672.541ZM273.016 679.118L273.14 679.614L274.01 680.11L273.016 679.118ZM354.518 670.183L352.033 671.424L354.393 672.169L354.518 670.183ZM352.903 670.183L352.654 669.935L352.53 670.183H352.903ZM360.481 668.198L359.487 667.826L359.239 668.57L360.481 668.198ZM355.139 669.066L354.269 668.942V669.19L355.139 669.066ZM357.872 668.074L362.966 675.519L361.599 668.694L357.872 668.074ZM275.873 676.14L272.892 678.373L274.258 679.862L278.234 676.884L275.873 676.14ZM242.08 671.424L241.956 671.3V671.424H242.08ZM240.713 670.804L240.589 670.183V670.431L240.713 670.804ZM278.855 672.417L278.607 672.541V672.665L278.855 672.417ZM277.613 672.169H277.488L277.24 672.541L277.613 672.169ZM280.594 671.176L280.222 670.928V671.052L280.594 671.176ZM281.588 671.052L281.216 670.804V670.928L281.588 671.052ZM279.973 670.68H279.476V670.804L279.973 670.68ZM304.697 668.198L304.821 667.826L304.573 668.074L304.697 668.198ZM312.276 664.227L313.767 662.366L313.27 662.738L312.276 664.227ZM297.118 663.979L297.615 663.606L297.74 663.11L297.118 663.979ZM297.118 662.614L296.622 662.986L297.491 662.738L297.118 662.614ZM276.743 662.614L276.619 662.117H276.494L276.743 662.614ZM296.622 662.49L296.125 662.986L295.876 663.482L296.622 662.49ZM310.909 661L310.661 660.876V661H310.909ZM309.418 660.876L309.543 661V660.876H309.418ZM299.231 661.621L299.728 661.125L299.106 661.621H299.231ZM300.721 660.504L297.74 665.344L301.591 660.876L300.721 660.504ZM296.87 661.125L296.497 660.628L296.373 660.876L296.87 661.125ZM306.312 660.008L306.064 659.884L306.188 660.008H306.312ZM309.543 660.256V659.387L309.294 659.76L309.543 660.256ZM218.35 650.701L212.386 650.453L216.486 654.796L218.35 650.701ZM303.206 659.511L303.455 660.38L304.076 659.387L303.206 659.511ZM298.237 659.387L297.864 662.117L298.485 660.38L298.237 659.387ZM296.994 657.65L297.119 658.022L297.367 657.898L296.994 657.65ZM296.373 658.146L296.125 657.402L295.752 657.65L296.373 658.146ZM302.212 656.657V656.161L301.84 656.409L302.212 656.657ZM296.622 655.913V657.154L296.994 656.285L296.622 655.913ZM222.326 639.037L222.574 638.292L222.45 638.416L222.326 639.037ZM222.698 637.796L222.574 637.672L222.45 637.796H222.698ZM231.147 631.343L230.65 631.095V631.219L231.147 631.343ZM230.401 630.847V630.599L230.153 630.847H230.401ZM210.523 625.015L210.274 624.394L210.15 624.022L210.523 625.015ZM212.386 622.781H212.511L212.635 622.905L212.386 622.781ZM209.032 622.161L208.038 620.92L208.783 621.912L209.032 622.161ZM207.044 620.175H206.795L207.168 620.299L207.044 620.175ZM239.968 628.489L238.601 628.613L239.347 628.985L239.968 628.489ZM205.677 616.452L204.683 620.175L207.789 620.671L211.889 624.89L214.374 623.774L205.677 616.452ZM221.207 604.788L220.959 604.664L221.083 604.788H221.207ZM224.81 606.029L225.183 605.905H225.059L224.81 606.029ZM227.295 605.284H227.668L228.786 604.788L227.295 605.284ZM231.768 603.919L232.016 603.671L231.644 603.919H231.768ZM232.389 603.795L233.134 603.423L232.513 603.547L232.389 603.795ZM234.253 603.051L233.631 603.175V603.299L234.253 603.051ZM314.015 580.591L313.518 580.218L312.649 579.846L314.015 580.591ZM248.913 577.861L250.031 576.371L249.41 576.868L248.913 577.861ZM250.404 576.123L250.901 575.379L250.652 575.627L250.404 576.123ZM251.149 575.131L252.019 574.386L251.522 574.634L251.149 575.131ZM290.285 575.379L290.906 575.999H291.279L290.285 575.379ZM270.283 567.189L265.189 571.408L262.083 570.539L254.877 574.634L253.51 573.766L245.31 582.948L236.986 584.81L237.731 589.277L241.459 594.364L248.416 601.065L247.298 603.671L252.516 605.905L249.783 606.401L246.428 603.795L248.168 607.642L245.931 609.007L238.85 602.554L233.259 603.547L223.692 607.146L228.041 611.985L227.419 614.963L230.277 618.438L239.719 622.16L246.552 618.686L247.671 621.292L245.807 629.109H240.092L233.383 632.088L233.01 629.978L229.532 631.343L227.916 634.942L222.201 639.285V645.613L224.438 646.606L222.698 651.942L230.153 658.394L234.874 656.409L233.88 664.351L235.247 666.088L240.962 667.329L243.074 669.687L248.043 670.059L250.404 672.541L255.498 671.052L253.137 674.278L251.274 680.855L236.116 690.658L234.128 692.643L231.271 691.526L226.674 692.643L220.089 696.986L230.401 694.008L231.892 696.242L245.186 691.898L245.559 693.636L250.777 688.424L261.71 680.855L262.58 681.351L272.146 673.781L269.661 670.803L272.892 665.468L281.34 655.416L287.8 654.175L289.788 655.54L281.961 657.774L279.849 666.088L280.098 670.555L282.831 670.307L296 662.365L296.994 659.387L295.876 654.796L299.852 655.789L302.709 653.927L310.909 658.891L310.288 660.256L328.924 662.613L333.273 661.248L334.515 663.11L350.666 670.803L353.4 669.19L353.648 659.883L355.76 664.103L366.196 671.672L367.066 674.774L376.136 679.862L378.496 686.439L380.733 681.351L385.329 690.285L388.435 685.198L385.951 678.869L376.384 677.876L361.724 663.854L353.772 658.022L347.685 663.978H344.082L335.757 658.519L327.557 658.146L315.879 584.561L313.891 581.087L309.17 578.233L302.088 579.598L296.622 578.481L289.664 575.751L282.334 576.247L280.47 572.773L274.631 571.904L273.637 569.795L271.028 572.773L270.283 567.189Z" stroke="#FF8514" stroke-linejoin="round"/>
</g>
</g>
<defs>
<linearGradient id="paint0_linear_100_39" x1="640" y1="0" x2="640" y2="753" gradientUnits="userSpaceOnUse">
<stop stop-color="#D9D9D9" stop-opacity="0"/>
<stop offset="0.42" stop-color="#D2D2D2" stop-opacity="0.37"/>
<stop offset="1" stop-color="#737373" stop-opacity="0"/>
</linearGradient>
<clipPath id="clip0_100_39">
<rect width="1280" height="753" fill="white"/>
</clipPath>
</defs>
</svg>
