<svg width="990" height="260" viewBox="0 0 990 260" fill="none" xmlns="http://www.w3.org/2000/svg">
<rect y="250" width="990" height="4" rx="2" fill="#FF8514"/>
<rect x="986" y="1" width="4" height="253" rx="2" fill="#FF8514"/>
<rect y="244" width="4" height="16" rx="2" fill="#FF8514"/>
<rect x="986" y="244" width="4" height="16" rx="2" fill="#FF8514"/>
<path d="M404.5 73.9999C266.9 62.7999 78.8333 237 2 252H988V1C827 1 800 105 717.5 133.5C635 162 576.5 87.9999 404.5 73.9999Z" fill="url(#paint0_linear_100_100)" fill-opacity="0.6"/>
<path d="M2 252C78.8333 237 266.9 62.7999 404.5 73.9999C576.5 87.9999 635 162 717.5 133.5C800 105 827 1 988 1" stroke="#FF8514"/>
<defs>
<linearGradient id="paint0_linear_100_100" x1="495" y1="1" x2="495" y2="252" gradientUnits="userSpaceOnUse">
<stop stop-color="#FF8514"/>
<stop offset="1" stop-color="#FF8514" stop-opacity="0"/>
</linearGradient>
</defs>
</svg>
