<svg width="140" height="40" viewBox="0 0 140 40" fill="none" xmlns="http://www.w3.org/2000/svg">
<path d="M27.2508 32.5824V40H6.14639V32.5824H27.2508ZM9.54595 0V40H0V0H9.54595ZM24.5312 15.8791V23.0495H6.14639V15.8791H24.5312ZM27.3324 0V7.44506H6.14639V0H27.3324Z" fill="#1F160E"/>
<path d="M45.9621 0C46.2383 0 46.4621 0.223858 46.4621 0.5V39.3582C46.4621 39.6343 46.2383 39.8582 45.9621 39.8582H41.7079H37.4537C37.1776 39.8582 36.9537 39.6343 36.9537 39.3582V0.500001C36.9537 0.223859 37.1776 0 37.4537 0H45.9621ZM57.8273 0C58.1035 0 58.3273 0.223858 58.3273 0.5V6.87693C58.3273 7.15266 58.1041 7.37635 57.8284 7.37693L25.8604 7.44355C25.5839 7.44412 25.3594 7.2201 25.3594 6.94355V0.5C25.3594 0.223857 25.5832 0 25.8594 0H57.8273Z" fill="#1F160E"/>
<path d="M77.2012 29.1176C77.2012 28.5116 77.1128 27.9679 76.9361 27.4866C76.7593 26.9875 76.4324 26.5241 75.9552 26.0963C75.4781 25.6684 74.7889 25.2406 73.8876 24.8128C73.0039 24.3672 71.8376 23.9037 70.3884 23.4225C68.6919 22.8521 67.0572 22.2103 65.4843 21.4973C63.9115 20.7665 62.5065 19.9198 61.2694 18.9572C60.0324 17.9768 59.0515 16.836 58.327 15.5348C57.6024 14.2157 57.2401 12.6827 57.2401 10.9358C57.2401 9.26025 57.6112 7.75401 58.3535 6.41711C59.0957 5.06239 60.1296 3.91266 61.455 2.96791C62.7981 2.00535 64.3709 1.27451 66.1735 0.775401C67.9761 0.258467 69.9466 0 72.085 0C74.9126 0 77.4044 0.499109 79.5604 1.49733C81.7341 2.47772 83.4307 3.87701 84.6501 5.69519C85.8872 7.49554 86.5057 9.62567 86.5057 12.0856H77.2542C77.2542 11.1052 77.0509 10.2406 76.6445 9.49198C76.2557 8.74332 75.6636 8.15508 74.8684 7.72727C74.0731 7.29947 73.0746 7.08556 71.8729 7.08556C70.7065 7.08556 69.7257 7.26381 68.9304 7.62032C68.1352 7.97683 67.5343 8.45811 67.1279 9.06417C66.7214 9.65241 66.5182 10.303 66.5182 11.016C66.5182 11.6043 66.6772 12.139 66.9953 12.6203C67.3311 13.0838 67.7994 13.5205 68.4003 13.9305C69.0188 14.3405 69.761 14.7326 70.627 15.107C71.5106 15.4813 72.5003 15.8467 73.596 16.2032C75.646 16.8627 77.4662 17.6025 79.0568 18.4225C80.665 19.2246 82.0169 20.1426 83.1126 21.1765C84.226 22.1925 85.0654 23.3512 85.6309 24.6524C86.2141 25.9537 86.5057 27.4242 86.5057 29.0642C86.5057 30.8111 86.1699 32.3619 85.4984 33.7166C84.8268 35.0713 83.8637 36.221 82.6089 37.1658C81.3542 38.0927 79.852 38.7968 78.1024 39.2781C76.3529 39.7594 74.4001 40 72.244 40C70.2647 40 68.3119 39.7504 66.3856 39.2513C64.477 38.7344 62.7451 37.9501 61.1899 36.8984C59.6347 35.8289 58.3888 34.4652 57.4522 32.8075C56.5332 31.1319 56.0737 29.1444 56.0737 26.8449H65.4048C65.4048 27.9857 65.555 28.9483 65.8554 29.7326C66.1559 30.5169 66.5977 31.1497 67.1809 31.631C67.7641 32.0945 68.4798 32.4332 69.3281 32.6471C70.1764 32.8431 71.1483 32.9412 72.244 32.9412C73.4281 32.9412 74.3824 32.7718 75.107 32.4332C75.8315 32.0766 76.3617 31.6132 76.6975 31.0428C77.0333 30.4545 77.2012 29.8128 77.2012 29.1176Z" fill="#1F160E"/>
<path d="M57.4824 0H72.4166C72.4166 4.07359 69.1143 7.37589 65.0407 7.37589H57.4824V0Z" fill="#1F160E"/>
<rect x="92.1411" y="27.2344" width="47.8588" height="12.7381" fill="#FF8514"/>
<path d="M132.349 37.3872V30.0967H133.191V36.6427H136.879V37.3872H132.349Z" fill="white"/>
<path d="M127.516 37.4806C126.845 37.4806 126.26 37.3289 125.76 37.0256C125.267 36.7154 124.883 36.281 124.61 35.7226C124.343 35.1642 124.209 34.5023 124.209 33.7371C124.209 32.9718 124.343 32.31 124.61 31.7516C124.877 31.1931 125.257 30.7623 125.75 30.4589C126.25 30.1556 126.839 30.0039 127.516 30.0039C128.201 30.0039 128.79 30.1556 129.283 30.4589C129.783 30.7623 130.167 31.1931 130.434 31.7516C130.707 32.3031 130.844 32.9615 130.844 33.7267C130.844 34.492 130.707 35.1573 130.434 35.7226C130.16 36.281 129.773 36.7154 129.273 37.0256C128.78 37.3289 128.194 37.4806 127.516 37.4806ZM127.516 36.7257C128.29 36.7257 128.889 36.4637 129.314 35.9398C129.739 35.4158 129.951 34.6816 129.951 33.7371C129.951 32.7926 129.739 32.0618 129.314 31.5448C128.889 31.0208 128.29 30.7588 127.516 30.7588C126.756 30.7588 126.164 31.0208 125.739 31.5448C125.315 32.0618 125.103 32.7926 125.103 33.7371C125.103 34.6747 125.315 35.4089 125.739 35.9398C126.164 36.4637 126.756 36.7257 127.516 36.7257Z" fill="white"/>
<path d="M119.641 37.4806C118.97 37.4806 118.385 37.3289 117.885 37.0256C117.392 36.7154 117.008 36.281 116.735 35.7226C116.468 35.1642 116.334 34.5023 116.334 33.7371C116.334 32.9718 116.468 32.31 116.735 31.7516C117.002 31.1931 117.382 30.7623 117.875 30.4589C118.375 30.1556 118.964 30.0039 119.641 30.0039C120.326 30.0039 120.915 30.1556 121.408 30.4589C121.908 30.7623 122.292 31.1931 122.559 31.7516C122.832 32.3031 122.969 32.9615 122.969 33.7267C122.969 34.492 122.832 35.1573 122.559 35.7226C122.285 36.281 121.898 36.7154 121.398 37.0256C120.905 37.3289 120.319 37.4806 119.641 37.4806ZM119.641 36.7257C120.415 36.7257 121.014 36.4637 121.439 35.9398C121.864 35.4158 122.076 34.6816 122.076 33.7371C122.076 32.7926 121.864 32.0618 121.439 31.5448C121.014 31.0208 120.415 30.7588 119.641 30.7588C118.881 30.7588 118.289 31.0208 117.864 31.5448C117.44 32.0618 117.228 32.7926 117.228 33.7371C117.228 34.6747 117.44 35.4089 117.864 35.9398C118.289 36.4637 118.881 36.7257 119.641 36.7257Z" fill="white"/>
<path d="M108.788 37.3872V30.0967H109.63V33.3231H113.975V30.0967H114.817V37.3872H113.975V34.0574H109.63V37.3872H108.788Z" fill="white"/>
<path d="M105.009 37.4806C104.297 37.4806 103.688 37.3289 103.181 37.0256C102.674 36.7223 102.284 36.2914 102.01 35.7329C101.743 35.1745 101.609 34.5092 101.609 33.7371C101.609 32.9718 101.743 32.31 102.01 31.7516C102.284 31.1931 102.674 30.7623 103.181 30.4589C103.688 30.1556 104.297 30.0039 105.009 30.0039C105.509 30.0039 105.968 30.0832 106.386 30.2418C106.81 30.4003 107.17 30.6313 107.464 30.9346L107.135 31.6275C106.82 31.331 106.492 31.1173 106.149 30.9863C105.814 30.8484 105.441 30.7795 105.03 30.7795C104.215 30.7795 103.592 31.038 103.16 31.5551C102.729 32.0722 102.513 32.7995 102.513 33.7371C102.513 34.6816 102.729 35.4124 103.16 35.9294C103.592 36.4465 104.215 36.705 105.03 36.705C105.441 36.705 105.814 36.6395 106.149 36.5085C106.492 36.3707 106.82 36.1535 107.135 35.857L107.464 36.5499C107.17 36.8464 106.81 37.0773 106.386 37.2428C105.968 37.4013 105.509 37.4806 105.009 37.4806Z" fill="white"/>
<path d="M97.8987 37.4806C97.3304 37.4806 96.8168 37.4082 96.358 37.2635C95.8992 37.1118 95.502 36.8946 95.1665 36.612L95.4644 35.9294C95.8136 36.1983 96.18 36.3982 96.5634 36.5292C96.9469 36.6602 97.392 36.7257 97.8987 36.7257C98.515 36.7257 98.9704 36.612 99.2649 36.3844C99.5662 36.15 99.7168 35.8433 99.7168 35.4641C99.7168 35.1607 99.6073 34.9194 99.3881 34.7402C99.1758 34.5609 98.8163 34.4196 98.3096 34.3162L97.2414 34.099C96.5977 33.9612 96.1149 33.7371 95.7931 33.4269C95.4781 33.1097 95.3206 32.6892 95.3206 32.1652C95.3206 31.7309 95.4301 31.3517 95.6493 31.0277C95.8752 30.7037 96.1868 30.452 96.584 30.2728C96.9812 30.0935 97.4399 30.0039 97.9604 30.0039C98.4466 30.0039 98.8985 30.0832 99.3162 30.2418C99.7339 30.3934 100.087 30.614 100.374 30.9036L100.076 31.5654C99.7682 31.2828 99.4429 31.0794 99.1005 30.9553C98.7581 30.8243 98.3747 30.7588 97.9501 30.7588C97.4091 30.7588 96.9777 30.8864 96.6559 31.1414C96.334 31.3896 96.1731 31.7206 96.1731 32.1342C96.1731 32.4651 96.2724 32.7271 96.471 32.9201C96.6764 33.1132 97.0085 33.2545 97.4673 33.3441L98.5356 33.5716C99.2272 33.7164 99.7374 33.937 100.066 34.2335C100.402 34.523 100.569 34.9194 100.569 35.4227C100.569 35.8295 100.46 36.188 100.241 36.4982C100.028 36.8084 99.7202 37.0497 99.3162 37.2221C98.9191 37.3944 98.4466 37.4806 97.8987 37.4806Z" fill="white"/>
</svg>
