<svg width="18" height="18" viewBox="0 0 18 18" fill="none" xmlns="http://www.w3.org/2000/svg">
<path d="M9 17C13.4183 17 17 13.4183 17 9C17 4.58172 13.4183 1 9 1C4.58172 1 1 4.58172 1 9C1 13.4183 4.58172 17 9 17Z" stroke="#FF8514" stroke-linecap="round" stroke-linejoin="round"/>
<path d="M1 9H17" stroke="#FF8514" stroke-linecap="round" stroke-linejoin="round"/>
<path d="M8.9998 17C10.7671 17 12.1998 13.4183 12.1998 9C12.1998 4.58172 10.7671 1 8.9998 1C7.23248 1 5.7998 4.58172 5.7998 9C5.7998 13.4183 7.23248 17 8.9998 17Z" stroke="#FF8514" stroke-linecap="round" stroke-linejoin="round"/>
<path d="M3.34277 3.45703C4.79049 4.90475 6.79049 5.80019 8.99961 5.80019C11.2088 5.80019 13.2088 4.90475 14.6565 3.45703" stroke="#FF8514" stroke-linecap="round" stroke-linejoin="round"/>
<path d="M14.6565 14.5434C13.2088 13.0956 11.2088 12.2002 8.99961 12.2002C6.79049 12.2002 4.79049 13.0956 3.34277 14.5434" stroke="#FF8514" stroke-linecap="round" stroke-linejoin="round"/>
</svg>
